<?xml version="1.0" encoding="utf-8"?>
<!-- Generator: Adobe Illustrator 19.0.0, SVG Export Plug-In . SVG Version: 6.00 Build 0)  -->
<svg version="1.1" id="Capa_1" xmlns="http://www.w3.org/2000/svg" xmlns:xlink="http://www.w3.org/1999/xlink" x="0px" y="0px"
	 viewBox="0 0 683.3 116.7" style="enable-background:new 0 0 683.3 116.7;" xml:space="preserve">
<style type="text/css">
	.st0{fill:#395599;}
</style>
<g id="XMLID_41_">
	<g id="XMLID_138_">
		<g id="XMLID_265_">
			<path id="XMLID_298_" class="st0" d="M172.8,97.5c0.2,0,0.4,0.2,0.3,0.4l-1.9,10.5c-0.4,2.5,0.4,4.1,2.6,4.1c2.1,0,3.6-1.6,4.1-4
				l1.8-10.5c0-0.2,0.2-0.4,0.4-0.4h3.2c0.2,0,0.4,0.2,0.3,0.4l-3.1,17.3c0,0.2-0.2,0.4-0.4,0.4H177c-0.2,0-0.3-0.2-0.3-0.4l0.3-1.4
				h0c-1.2,1.3-2.7,2.2-4.9,2.2c-3.8,0-5.5-2.8-4.8-6.7l2-11.4c0-0.2,0.2-0.4,0.4-0.4H172.8z"/>
			<path id="XMLID_296_" class="st0" d="M195.7,115.6c-0.2,0-0.3-0.2-0.3-0.4l1.8-10.5c0.4-2.5-0.4-4.1-2.6-4.1
				c-2.1,0-3.7,1.7-4.1,4.1l-1.8,10.5c0,0.2-0.1,0.4-0.4,0.4h-3.3c-0.2,0-0.4-0.2-0.3-0.4l3.1-17.3c0-0.2,0.2-0.4,0.4-0.4h3.3
				c0.2,0,0.3,0.2,0.3,0.4l-0.3,1.4h0c1.1-1.2,2.7-2.2,5-2.2c3.8,0,5.6,2.8,4.8,6.7l-2,11.4c0,0.2-0.2,0.4-0.4,0.4H195.7z"/>
			<path id="XMLID_293_" class="st0" d="M213.3,115.6c-0.2,0-0.3-0.2-0.3-0.4l0.2-1.4h0c-1,1.3-2.8,2.2-5.3,2.2c-2.8,0-5-1.8-5-4.7
				c0-4.2,3-6.5,8-6.5h3.5c0.2,0,0.3-0.1,0.3-0.2l0.2-1c0.4-2.2-0.3-3.1-3.3-3.1c-2,0-3.3,0.6-4.2,1.3c-0.2,0.2-0.4,0.1-0.5-0.1
				l-0.9-2.4c-0.1-0.2,0-0.4,0.2-0.5c1.5-1.1,3.9-1.8,6.5-1.8c5.1,0,6.9,1.8,6.1,6.3l-2.1,11.9c0,0.2-0.2,0.4-0.4,0.4H213.3z
				 M213.9,109.6l0.3-1.5c0-0.2,0-0.2-0.2-0.2h-2.9c-3.1,0-4.2,1.1-4.2,3c0,1.2,0.9,2,2.6,2C211.9,112.8,213.6,111.7,213.9,109.6z"
				/>
			<path id="XMLID_291_" class="st0" d="M228.7,109.7c0-1.6,0.4-5.4,1.7-7.9c1.5-3.1,4.2-4.7,7.8-4.7c2.6,0,4.4,1.1,5.5,3
				c0.1,0.2,0.1,0.4-0.2,0.5l-2.3,1.7c-0.2,0.2-0.5,0.1-0.6-0.1c-0.7-1.1-1.5-1.7-2.9-1.7c-1.6,0-3,0.9-3.8,2.5
				c-0.8,1.6-1.3,4.7-1.3,5.9c0,2.3,0.9,3.4,2.9,3.4c1.3,0,2.4-0.6,3.6-1.7c0.2-0.2,0.3-0.2,0.5,0l1.9,1.9c0.1,0.1,0.1,0.3,0,0.5
				c-1.4,1.8-3.8,2.9-6.6,2.9C231.2,116,228.7,113.6,228.7,109.7z"/>
			<path id="XMLID_289_" class="st0" d="M244.1,115.6c-0.2,0-0.4-0.2-0.3-0.4l3.1-17.3c0-0.2,0.2-0.4,0.4-0.4h3.3
				c0.2,0,0.3,0.2,0.3,0.4l-0.3,1.6h0c1.1-1.4,2.8-2.4,4.8-2.4c1.5,0,2.7,0.5,3.4,1.5c0.1,0.2,0.2,0.3,0,0.5l-2.2,2.3
				c-0.2,0.2-0.3,0.2-0.5,0.1c-0.7-0.5-1.4-0.9-2.4-0.9c-2.3,0-3.6,1.8-4.2,4.8l-1.7,9.8c0,0.2-0.2,0.4-0.4,0.4H244.1z"/>
			<path id="XMLID_286_" class="st0" d="M257.9,109.4c0-2.1,0.5-5.5,1.5-7.5c1.5-3.1,4.1-4.9,8-4.9c3.6,0,6.3,2.2,6.3,6.3
				c0,1-0.1,2.1-0.5,4c0,0.2-0.2,0.4-0.5,0.4h-10.7c-0.1,0-0.2,0.1-0.3,0.2c-0.1,0.3-0.1,0.5-0.1,0.8c0,2.7,1.2,3.7,3.5,3.7
				c1.7,0,3.4-0.9,4.5-1.9c0.2-0.2,0.4-0.2,0.6,0l1.6,1.8c0.2,0.2,0.2,0.4,0,0.6c-1.7,1.7-4.3,3-7.4,3
				C260.1,116,257.9,113.6,257.9,109.4z M269.5,104.8c0.2,0,0.3-0.1,0.3-0.2c0.1-0.4,0.1-0.8,0.1-1.1c0-2.1-1.1-3-3-3
				c-1.7,0-3.1,0.8-3.9,2.4c-0.2,0.5-0.4,1.1-0.6,1.7c0,0.1,0,0.2,0.2,0.2H269.5z"/>
			<path id="XMLID_283_" class="st0" d="M285.1,115.6c-0.2,0-0.3-0.2-0.3-0.4l0.2-1.4h0c-1,1.3-2.8,2.2-5.3,2.2c-2.8,0-5-1.8-5-4.7
				c0-4.2,3-6.5,8-6.5h3.5c0.1,0,0.3-0.1,0.3-0.2l0.2-1c0.4-2.2-0.3-3.1-3.3-3.1c-2,0-3.3,0.6-4.2,1.3c-0.2,0.2-0.4,0.1-0.5-0.1
				l-0.9-2.4c-0.1-0.2,0-0.4,0.2-0.5c1.5-1.1,3.9-1.8,6.5-1.8c5.1,0,6.9,1.8,6.1,6.3l-2.1,11.9c0,0.2-0.2,0.4-0.4,0.4H285.1z
				 M285.7,109.6l0.3-1.5c0-0.2,0-0.2-0.2-0.2h-2.9c-3.1,0-4.2,1.1-4.2,3c0,1.2,0.9,2,2.6,2C283.7,112.8,285.3,111.7,285.7,109.6z"
				/>
			<path id="XMLID_281_" class="st0" d="M292.7,109.7c0-1.6,0.4-5.4,1.7-7.9c1.5-3.1,4.2-4.7,7.8-4.7c2.6,0,4.4,1.1,5.5,3
				c0.1,0.2,0.1,0.4-0.2,0.5l-2.3,1.7c-0.2,0.2-0.5,0.1-0.6-0.1c-0.7-1.1-1.5-1.7-2.9-1.7c-1.6,0-3,0.9-3.8,2.5
				c-0.8,1.6-1.3,4.7-1.3,5.9c0,2.3,0.9,3.4,2.9,3.4c1.3,0,2.4-0.6,3.6-1.7c0.2-0.2,0.3-0.2,0.5,0l1.9,1.9c0.2,0.1,0.1,0.3,0,0.5
				c-1.4,1.8-3.8,2.9-6.6,2.9C295.1,116,292.7,113.6,292.7,109.7z"/>
			<path id="XMLID_278_" class="st0" d="M308,115.6c-0.2,0-0.4-0.2-0.3-0.4l3.1-17.3c0-0.2,0.2-0.4,0.4-0.4h3.3
				c0.2,0,0.3,0.2,0.3,0.4l-3.1,17.3c0,0.2-0.2,0.4-0.4,0.4H308z M311.8,93.9c-0.2,0-0.3-0.1-0.3-0.4l0.6-3.1c0-0.2,0.2-0.4,0.4-0.4
				h3.3c0.2,0,0.3,0.2,0.3,0.4l-0.6,3.1c0,0.2-0.2,0.4-0.4,0.4H311.8z"/>
			<path id="XMLID_274_" class="st0" d="M316,109.7c0-2.2,0.7-5.9,1.7-7.9c1.6-3.3,4.4-4.7,8-4.7c4,0,6.4,2.4,6.4,6.3
				c0,2.2-0.7,5.9-1.7,7.9c-1.7,3.3-4.4,4.7-8,4.7C318.5,116,316,113.6,316,109.7z M326.8,110c0.7-1.5,1.3-4.7,1.3-6
				c0-2.1-0.8-3.4-2.9-3.4c-1.7,0-3,0.9-3.8,2.5c-0.7,1.4-1.3,4.6-1.3,6c0,2.1,0.8,3.4,2.9,3.4C324.7,112.5,326,111.6,326.8,110z
				 M324.5,94.8c-0.2,0-0.3-0.1-0.2-0.4l3.4-4.7c0.2-0.3,0.4-0.4,0.7-0.4h3.3c0.2,0,0.3,0.2,0.1,0.4l-4.2,4.7
				c-0.3,0.3-0.4,0.4-0.8,0.4H324.5z"/>
			<path id="XMLID_272_" class="st0" d="M344.5,115.6c-0.2,0-0.3-0.2-0.3-0.4l1.8-10.5c0.4-2.5-0.4-4.1-2.6-4.1
				c-2.1,0-3.7,1.7-4.1,4.1l-1.8,10.5c0,0.2-0.1,0.4-0.4,0.4h-3.3c-0.2,0-0.4-0.2-0.3-0.4l3.1-17.3c0-0.2,0.2-0.4,0.4-0.4h3.3
				c0.2,0,0.3,0.2,0.3,0.4l-0.3,1.4h0c1.1-1.2,2.7-2.2,5-2.2c3.8,0,5.6,2.8,4.8,6.7l-2,11.4c0,0.2-0.2,0.4-0.4,0.4H344.5z"/>
			<path id="XMLID_269_" class="st0" d="M370.5,115.6c-0.2,0-0.3-0.2-0.3-0.4l0.2-1.4h0c-1.1,1.3-2.7,2.2-5.1,2.2
				c-3.3,0-5.3-2.3-5.3-6c0-2.4,0.7-6.5,1.8-8.8c1.4-2.9,3.7-4.1,6.6-4.1c2.5,0,3.9,1,4.4,2.3h0l1.5-8.9c0-0.2,0.2-0.4,0.4-0.4h3.3
				c0.2,0,0.4,0.2,0.3,0.4l-4.4,24.8c0,0.2-0.2,0.4-0.4,0.4H370.5z M370.8,110c0.6-1.3,1.2-4.5,1.2-6.2c0-2.1-0.8-3.3-2.9-3.3
				c-1.7,0-3,0.9-3.8,2.5c-0.7,1.4-1.3,4.5-1.3,6.2c0,2.1,0.8,3.2,2.9,3.2C368.7,112.5,370,111.7,370.8,110z"/>
			<path id="XMLID_266_" class="st0" d="M378.6,109.4c0-2.1,0.5-5.5,1.5-7.5c1.5-3.1,4.1-4.9,8-4.9c3.6,0,6.3,2.2,6.3,6.3
				c0,1-0.1,2.1-0.5,4c0,0.2-0.2,0.4-0.5,0.4h-10.7c-0.2,0-0.2,0.1-0.3,0.2c-0.1,0.3-0.1,0.5-0.1,0.8c0,2.7,1.2,3.7,3.5,3.7
				c1.7,0,3.4-0.9,4.5-1.9c0.2-0.2,0.4-0.2,0.6,0l1.6,1.8c0.2,0.2,0.2,0.4,0,0.6c-1.7,1.7-4.3,3-7.4,3
				C380.8,116,378.6,113.6,378.6,109.4z M390.2,104.8c0.2,0,0.3-0.1,0.3-0.2c0.1-0.4,0.1-0.8,0.1-1.1c0-2.1-1.1-3-3-3
				c-1.7,0-3.1,0.8-3.9,2.4c-0.2,0.5-0.4,1.1-0.6,1.7c0,0.1,0,0.2,0.2,0.2H390.2z"/>
		</g>
	</g>
	<g id="XMLID_88_">
		<g id="XMLID_115_">
			<g id="XMLID_116_">
				<path id="XMLID_130_" class="st0" d="M431,95.7l-1.5,6.4l5.1,0.1c-1.5,4.4-1.2,4.8-4.5,4.8c-5,0-7.6-2.3-7.6-6.6
					c0-2.2,0.4-4.3,1.1-6.1h-12.6c-0.6,2.3-0.9,4.6-0.9,6.9c0,4.6,2.2,15.4,16.4,15.4c4.3,0,8.8,1,15.5-3.2
					c5.8-3.5,7.6-17.8,7.6-17.8H431z"/>
				<path id="XMLID_129_" class="st0" d="M432.3,88.3c2.7,0,4.7,0.2,5.4,2.4h0.9l11.8-1.9c-1.7-7-9.6-10.5-17.4-10.5
					c-10.8,0-17.7,5.3-20.9,12.4h13.8C427.5,89.2,429.5,88.3,432.3,88.3z"/>
				<polygon id="XMLID_128_" class="st0" points="476.7,94.3 477.1,103.5 471.4,103.5 475.3,94.3 462.8,94.3 449.4,115.8 
					463.3,115.8 466.1,111.5 477.5,111.5 478.5,115.8 491.9,115.8 488.7,94.3 				"/>
				<polygon id="XMLID_127_" class="st0" points="486.5,79.2 472.1,79.2 465,90.7 488.2,90.7 				"/>
				<polygon id="XMLID_126_" class="st0" points="528.4,115.8 541,115.8 546,94.3 533.4,94.3 				"/>
				<polygon id="XMLID_125_" class="st0" points="534.2,90.7 546.8,90.7 549.5,79.2 536.9,79.2 				"/>
				<polygon id="XMLID_124_" class="st0" points="573.7,79.2 559.4,79.2 557.1,90.7 571.3,90.7 				"/>
				<polygon id="XMLID_123_" class="st0" points="570.6,94.3 556.3,94.3 551.9,115.8 579.4,115.8 581.3,106.5 568.1,106.5 				"/>
				<polygon id="XMLID_122_" class="st0" points="514.6,94.3 500.3,94.3 495.8,115.8 523.3,115.8 525.3,106.5 512,106.5 				"/>
				<polygon id="XMLID_121_" class="st0" points="517.7,79.2 503.5,79.2 501,90.7 515.3,90.7 				"/>
				<polygon id="XMLID_120_" class="st0" points="614.4,101.9 615.8,94.3 589.2,94.3 585.1,115.8 613.3,115.8 615,106.5 
					597.2,106.5 598.1,101.9 				"/>
				<polygon id="XMLID_119_" class="st0" points="589.9,90.7 600.3,90.7 600.7,88.6 618.2,88.6 619.9,79.2 592.1,79.2 				"/>
				<path id="XMLID_118_" class="st0" d="M666.8,94.3H653c-0.6,5.2-1.8,11.3-9.6,11.2c-5.2-0.1-6.6-3.9-6.6-7.2c0-1.6,0.1-2.9,0.4-4
					h-13.7c-0.7,2.1-1,4.3-1,6.6c0,10.6,8.1,15.7,20.3,15.7c14.6,0,24.2-8.2,24.2-20.4C666.9,95.6,666.9,94.9,666.8,94.3z"/>
				<path id="XMLID_117_" class="st0" d="M647.3,78.3c-10.3,0-18.4,5.1-22.3,12.4h41.2C664.1,82.9,657.3,78.3,647.3,78.3z"/>
			</g>
		</g>
	</g>
	<g id="XMLID_49_">
		<path id="XMLID_86_" class="st0" d="M0.7,27.2C0.7,18.9,1,16,2.1,12.7C4.8,4.3,11.6,0,21,0c9.8,0,16.2,5.3,18.4,11.2
			c0.2,0.4,0.1,0.9-0.3,1.1l-6.5,2.9c-0.5,0.2-0.9-0.1-1-0.4c-2.3-4.2-5.5-6.5-10.6-6.5c-5.4,0-8.5,2.6-9.9,6.9
			c-0.6,1.9-0.9,4.6-0.9,12.1c0,7.4,0.3,10.2,0.9,12.1c1.5,4.3,4.6,6.9,9.9,6.9c4.7,0,8.6-2.3,10-6.6c0.5-1.6,0.9-3.8,0.9-6.8
			c0-0.3-0.2-0.5-0.5-0.5h-8.7c-0.5,0-0.8-0.3-0.8-0.8v-6.2c0-0.5,0.3-0.8,0.8-0.8H40c0.5,0,0.8,0.3,0.8,0.8v4.6
			c0,4.3-0.4,8.9-1.2,11.6C37,49.7,30,54.4,21,54.4c-9.3,0-16.1-4.3-18.8-12.7C1,38.5,0.7,35.5,0.7,27.2z"/>
		<path id="XMLID_83_" class="st0" d="M59,1.6c0.2-0.5,0.5-0.8,1-0.8h7.1c0.5,0,0.9,0.3,1,0.8L86,52.8c0.2,0.5,0,0.8-0.5,0.8h-7.6
			c-0.5,0-0.9-0.2-1-0.8l-3.5-10.2H53.5L50,52.8c-0.2,0.5-0.5,0.8-1,0.8h-7.5c-0.5,0-0.7-0.3-0.5-0.8L59,1.6z M70.5,34.4l-7-20.5
			h-0.2l-7.1,20.5H70.5z"/>
		<path id="XMLID_81_" class="st0" d="M87.3,47.5c-0.3-0.3-0.5-0.8-0.2-1.2l4.8-5.6c0.3-0.4,0.8-0.4,1.1-0.1
			c3.4,2.7,8.5,5.6,14.3,5.6c6.3,0,9.9-3.2,9.9-7.6c0-3.8-2.3-6.3-9.6-7.3l-2.8-0.4C94.7,29.5,89,24.7,89,15.9
			C89,6.4,95.9,0,106.8,0c6.6,0,12.9,2.1,17.1,5.3c0.4,0.3,0.5,0.6,0.2,1.1l-3.7,5.7c-0.3,0.4-0.7,0.5-1.1,0.2
			c-4.3-2.8-8.2-4.1-12.6-4.1c-5.4,0-8.3,2.9-8.3,7.1c0,3.6,2.6,6.1,9.7,7.1l2.8,0.4c10.2,1.4,15.7,6.2,15.7,15.3
			c0,9.4-6.7,16.4-19.8,16.4C98.9,54.4,91.4,51.3,87.3,47.5z"/>
		<path id="XMLID_78_" class="st0" d="M131.2,41.7c-1.1-3.3-1.4-6.2-1.4-14.5c0-8.3,0.3-11.2,1.4-14.5C134,4.3,140.8,0,149.8,0
			c9.1,0,16,4.3,18.7,12.7c1.1,3.3,1.4,6.2,1.4,14.5c0,8.3-0.3,11.2-1.4,14.5c-2.7,8.4-9.5,12.7-18.7,12.7
			C140.8,54.4,134,50.1,131.2,41.7z M159.7,39.3c0.6-1.9,0.9-4.7,0.9-12.1c0-7.5-0.3-10.2-0.9-12.1c-1.5-4.3-4.6-6.9-9.8-6.9
			c-5.2,0-8.3,2.6-9.8,6.9c-0.6,1.9-0.9,4.6-0.9,12.1c0,7.4,0.3,10.2,0.9,12.1c1.5,4.3,4.6,6.9,9.8,6.9
			C155.1,46.2,158.2,43.6,159.7,39.3z"/>
		<path id="XMLID_75_" class="st0" d="M175.4,1.6c0-0.5,0.3-0.8,0.8-0.8H195c9.1,0,15.1,4,17.6,11.7c0.9,2.6,1.3,5.5,1.3,14.7
			c0,9.1-0.5,12-1.3,14.7c-2.5,7.7-8.5,11.7-17.6,11.7h-18.8c-0.5,0-0.8-0.3-0.8-0.8V1.6z M185,45.4h7.8c5.8,0,9.4-1.9,10.9-6.7
			c0.5-1.5,0.9-3.9,0.9-11.5c0-7.7-0.4-10-0.9-11.5c-1.6-4.7-5.1-6.7-10.9-6.7H185c-0.3,0-0.5,0.2-0.5,0.5v35.4
			C184.5,45.2,184.7,45.4,185,45.4z"/>
		<path id="XMLID_73_" class="st0" d="M248.6,34.9V1.6c0-0.5,0.3-0.8,0.8-0.8h7.6c0.5,0,0.8,0.3,0.8,0.8V35
			c0,12.2-8.3,19.4-19.5,19.4c-11.1,0-19.4-7.1-19.4-19.4V1.6c0-0.5,0.3-0.8,0.8-0.8h7.6c0.5,0,0.8,0.3,0.8,0.8v33.3
			c0,7.3,4.3,11.3,10.2,11.3C244.4,46.2,248.6,42.2,248.6,34.9z"/>
		<path id="XMLID_71_" class="st0" d="M262.9,27.2c0-8.4,0.3-11,1.4-14.3C267,4.3,273.7,0,282.6,0c8.5,0,14.8,4.3,17.8,11.3
			c0.2,0.4,0,0.8-0.4,0.9l-6.6,3.2c-0.5,0.2-0.9,0-1-0.4c-1.7-3.7-4.7-6.8-9.8-6.8c-5,0-8,2.7-9.5,7c-0.7,2.2-0.9,4.3-0.9,12
			s0.2,9.8,0.9,12c1.5,4.3,4.4,7,9.5,7c5.2,0,8.1-3.1,9.8-6.8c0.2-0.4,0.5-0.6,1-0.4l6.6,3.2c0.4,0.2,0.5,0.5,0.4,0.9
			c-3,7-9.4,11.3-17.8,11.3c-8.9,0-15.6-4.3-18.3-12.9C263.2,38.2,262.9,35.6,262.9,27.2z"/>
		<path id="XMLID_69_" class="st0" d="M317.9,53.6c-0.5,0-0.8-0.3-0.8-0.8V9.5c0-0.3-0.2-0.5-0.5-0.5h-13.8c-0.5,0-0.8-0.3-0.8-0.8
			V1.6c0-0.5,0.3-0.8,0.8-0.8h37.7c0.5,0,0.8,0.3,0.8,0.8v6.7c0,0.5-0.3,0.8-0.8,0.8h-13.8c-0.3,0-0.5,0.2-0.5,0.5v43.3
			c0,0.5-0.3,0.8-0.8,0.8H317.9z"/>
		<path id="XMLID_66_" class="st0" d="M344.1,41.7c-1.1-3.3-1.4-6.2-1.4-14.5c0-8.3,0.3-11.2,1.4-14.5C346.8,4.3,353.6,0,362.7,0
			c9.1,0,16,4.3,18.7,12.7c1.1,3.3,1.4,6.2,1.4,14.5c0,8.3-0.3,11.2-1.4,14.5c-2.7,8.4-9.5,12.7-18.7,12.7
			C353.6,54.4,346.8,50.1,344.1,41.7z M372.5,39.3c0.6-1.9,0.9-4.7,0.9-12.1c0-7.5-0.3-10.2-0.9-12.1c-1.5-4.3-4.6-6.9-9.8-6.9
			c-5.2,0-8.3,2.6-9.8,6.9c-0.6,1.9-0.9,4.6-0.9,12.1c0,7.4,0.3,10.2,0.9,12.1c1.5,4.3,4.6,6.9,9.8,6.9
			C367.9,46.2,371,43.6,372.5,39.3z"/>
		<path id="XMLID_64_" class="st0" d="M416.2,53.6c-0.5,0-0.8-0.3-0.9-0.8L398.6,1.6c-0.2-0.5,0.2-0.8,0.6-0.8h7.5
			c0.5,0,0.9,0.2,1,0.8L419.6,39h0.2l11.3-37.4c0.2-0.5,0.5-0.8,1-0.8h7.5c0.5,0,0.8,0.3,0.6,0.8l-16.7,51.2
			c-0.2,0.5-0.5,0.8-0.9,0.8H416.2z"/>
		<path id="XMLID_62_" class="st0" d="M443.4,1.6c0-0.5,0.3-0.8,0.8-0.8h7.6c0.5,0,0.8,0.3,0.8,0.8v51.2c0,0.5-0.3,0.8-0.8,0.8h-7.6
			c-0.5,0-0.8-0.3-0.8-0.8V1.6z"/>
		<path id="XMLID_59_" class="st0" d="M490.1,53.6c-0.6,0-0.9-0.2-1.2-0.8l-10.1-20.5h-9.1c-0.3,0-0.5,0.2-0.5,0.5v20.1
			c0,0.5-0.3,0.8-0.8,0.8H461c-0.5,0-0.8-0.3-0.8-0.8V1.6c0-0.5,0.3-0.8,0.8-0.8h20.4c9.7,0,16.8,6.4,16.8,15.7
			c0,6.9-4,12.2-10,14.5l11.1,21.5c0.3,0.5,0,1-0.5,1H490.1z M489.1,16.6c0-4.6-3.3-7.5-8.1-7.5h-11.2c-0.3,0-0.5,0.2-0.5,0.5v14
			c0,0.3,0.2,0.5,0.5,0.5H481C485.8,24,489.1,21.1,489.1,16.6z"/>
		<path id="XMLID_57_" class="st0" d="M515.9,53.6c-0.5,0-0.8-0.3-0.8-0.8V9.5c0-0.3-0.2-0.5-0.5-0.5h-13.8c-0.5,0-0.8-0.3-0.8-0.8
			V1.6c0-0.5,0.3-0.8,0.8-0.8h37.7c0.5,0,0.8,0.3,0.8,0.8v6.7c0,0.5-0.3,0.8-0.8,0.8h-13.8c-0.3,0-0.5,0.2-0.5,0.5v43.3
			c0,0.5-0.3,0.8-0.8,0.8H515.9z"/>
		<path id="XMLID_55_" class="st0" d="M572.3,34.9V1.6c0-0.5,0.3-0.8,0.8-0.8h7.6c0.5,0,0.8,0.3,0.8,0.8V35
			c0,12.2-8.3,19.4-19.5,19.4c-11.1,0-19.4-7.1-19.4-19.4V1.6c0-0.5,0.3-0.8,0.8-0.8h7.6c0.5,0,0.8,0.3,0.8,0.8v33.3
			c0,7.3,4.3,11.3,10.2,11.3C568,46.2,572.3,42.2,572.3,34.9z"/>
		<path id="XMLID_52_" class="st0" d="M600,1.6c0.2-0.5,0.5-0.8,1-0.8h7.1c0.5,0,0.9,0.3,1,0.8L627,52.8c0.2,0.5,0,0.8-0.5,0.8h-7.6
			c-0.5,0-0.9-0.2-1-0.8l-3.5-10.2h-19.8l-3.5,10.2c-0.2,0.5-0.5,0.8-1,0.8h-7.5c-0.5,0-0.7-0.3-0.5-0.8L600,1.6z M611.6,34.4
			l-7-20.5h-0.2l-7.1,20.5H611.6z"/>
		<path id="XMLID_50_" class="st0" d="M630.4,1.6c0-0.5,0.3-0.8,0.8-0.8h7.6c0.5,0,0.8,0.3,0.8,0.8v43.3c0,0.3,0.2,0.5,0.5,0.5h24.2
			c0.5,0,0.8,0.3,0.8,0.8v6.7c0,0.5-0.3,0.8-0.8,0.8h-33c-0.5,0-0.8-0.3-0.8-0.8V1.6z"/>
	</g>
	<g id="XMLID_42_">
		<g id="XMLID_43_">
			<path id="XMLID_44_" class="st0" d="M666.9,46.2c0-4.6,3.6-8.2,8.2-8.2c4.6,0,8.2,3.6,8.2,8.2c0,4.6-3.6,8.2-8.2,8.2
				C670.5,54.4,666.9,50.8,666.9,46.2z M681.6,46.2c0-3.7-2.8-6.5-6.4-6.5c-3.6,0-6.4,2.8-6.4,6.5c0,3.8,2.8,6.6,6.4,6.6
				C678.8,52.8,681.6,50,681.6,46.2z M672,50.7c-0.2,0-0.3-0.1-0.3-0.3v-8.5c0-0.2,0.1-0.3,0.3-0.3h3.6c2.1,0,3.3,1,3.3,2.8
				c0,1.3-0.6,2.1-1.7,2.6l1.8,3.4c0.1,0.2,0,0.3-0.2,0.3h-1.5c-0.2,0-0.3-0.1-0.4-0.3l-1.7-3.2H674c-0.1,0-0.2,0.1-0.2,0.2v3
				c0,0.2-0.1,0.3-0.3,0.3H672z M677,44.4c0-0.7-0.5-1-1.4-1H674c-0.1,0-0.2,0-0.2,0.2v1.7c0,0.1,0,0.2,0.2,0.2h1.6
				C676.5,45.4,677,45.1,677,44.4z"/>
		</g>
	</g>
</g>
</svg>
